<mxfile host="app.diagrams.net" modified="2022-04-01T06:10:06.798Z" agent="5.0 (Windows NT 10.0; Win64; x64) AppleWebKit/537.36 (KHTML, like Gecko) Chrome/99.0.4844.51 Safari/537.36" etag="_FMhtnEzYFykS1UMLo3t" version="16.6.5" type="github">
  <diagram id="d1_pyNrZgF3xTE_ZMnq0" name="第 1 页">
    <mxGraphModel dx="1128" dy="591" grid="1" gridSize="10" guides="1" tooltips="1" connect="1" arrows="1" fold="1" page="1" pageScale="1" pageWidth="827" pageHeight="1169" math="0" shadow="0">
      <root>
        <mxCell id="0" />
        <mxCell id="1" parent="0" />
        <mxCell id="8rtO3L0zwitexAxcnbb5-8" value="" style="rounded=0;orthogonalLoop=1;jettySize=auto;html=1;fillColor=#f5f5f5;strokeColor=#666666;align=center;" edge="1" parent="1" target="8rtO3L0zwitexAxcnbb5-7">
          <mxGeometry relative="1" as="geometry">
            <mxPoint x="300" y="110" as="sourcePoint" />
            <Array as="points" />
          </mxGeometry>
        </mxCell>
        <mxCell id="8rtO3L0zwitexAxcnbb5-1" value="超级管理员" style="shape=umlActor;verticalLabelPosition=bottom;verticalAlign=top;html=1;outlineConnect=0;fillColor=#f5f5f5;fontColor=#333333;strokeColor=#666666;align=center;" vertex="1" parent="1">
          <mxGeometry x="270" y="90" width="30" height="50" as="geometry" />
        </mxCell>
        <mxCell id="8rtO3L0zwitexAxcnbb5-7" value="&lt;font style=&quot;font-size: 16px;&quot;&gt;企业管理&lt;/font&gt;" style="ellipse;whiteSpace=wrap;html=1;verticalAlign=middle;align=center;fillColor=#f5f5f5;fontColor=#333333;strokeColor=#666666;fontSize=16;" vertex="1" parent="1">
          <mxGeometry x="380" y="80" width="120" height="60" as="geometry" />
        </mxCell>
        <mxCell id="8rtO3L0zwitexAxcnbb5-11" value="" style="rounded=0;orthogonalLoop=1;jettySize=auto;html=1;fillColor=#f5f5f5;strokeColor=#666666;align=center;" edge="1" parent="1" target="8rtO3L0zwitexAxcnbb5-13">
          <mxGeometry relative="1" as="geometry">
            <mxPoint x="300" y="280" as="sourcePoint" />
            <Array as="points" />
          </mxGeometry>
        </mxCell>
        <mxCell id="8rtO3L0zwitexAxcnbb5-12" value="超级管理员" style="shape=umlActor;verticalLabelPosition=bottom;verticalAlign=top;html=1;outlineConnect=0;fillColor=#f5f5f5;fontColor=#333333;strokeColor=#666666;align=center;" vertex="1" parent="1">
          <mxGeometry x="270" y="260" width="30" height="50" as="geometry" />
        </mxCell>
        <mxCell id="8rtO3L0zwitexAxcnbb5-13" value="&lt;font style=&quot;font-size: 16px;&quot;&gt;企业管理&lt;/font&gt;" style="ellipse;whiteSpace=wrap;html=1;verticalAlign=middle;align=center;fillColor=#f5f5f5;fontColor=#333333;strokeColor=#666666;fontSize=16;" vertex="1" parent="1">
          <mxGeometry x="380" y="250" width="120" height="60" as="geometry" />
        </mxCell>
      </root>
    </mxGraphModel>
  </diagram>
</mxfile>
